<svg version="1.2" xmlns="http://www.w3.org/2000/svg" viewBox="0 0 70 25" width="70" height="25"><style>.a{fill:#f00}</style><path  d="m-2 0h75.6v26.1h-75.6z"/><path fill-rule="evenodd" class="a" d="m17.9 8.4h1.4l-3.4 9.6h-1.4l-3.3-9.6h1.3l2.2 6.2q0.1 0.3 0.2 0.6 0.1 0.4 0.2 0.7 0.1 0.4 0.1 0.7 0.1-0.3 0.2-0.7 0.1-0.3 0.2-0.7 0.1-0.3 0.2-0.7zm5.2 0h1.3v9.6h-1.3zm14 4.7q0 1.6-0.6 2.7-0.6 1.1-1.7 1.7-1.1 0.5-2.7 0.5h-2.7v-9.6h3q1.4 0 2.5 0.6 1.1 0.5 1.6 1.5 0.6 1.1 0.6 2.6zm-1.4 0.1q0-1.3-0.4-2.1-0.4-0.8-1.2-1.2-0.7-0.4-1.8-0.4h-1.5v7.4h1.2q1.9 0 2.8-1 0.9-0.9 0.9-2.7zm11.4 3.6v1.2h-5.4v-9.6h5.4v1.2h-4.1v2.8h3.8v1.2h-3.8v3.2zm13-3.6q0 1.1-0.3 2-0.3 0.9-0.8 1.6-0.6 0.6-1.4 1-0.8 0.3-2 0.3-1.1 0-1.9-0.3-0.9-0.4-1.4-1-0.6-0.7-0.8-1.6-0.3-0.9-0.3-2 0-1.5 0.5-2.6 0.5-1.1 1.5-1.7 1-0.6 2.5-0.6 1.4 0 2.4 0.6 1 0.6 1.5 1.7 0.5 1.1 0.5 2.6zm-7.5 0q0 1.2 0.3 2 0.4 0.9 1 1.3 0.7 0.5 1.7 0.5 1.1 0 1.8-0.5 0.6-0.4 1-1.3 0.3-0.8 0.3-2 0-1.8-0.8-2.8-0.7-1-2.2-1-1.1 0-1.8 0.5-0.6 0.4-1 1.3-0.3 0.8-0.3 2z"/></svg>